<svg width="30" height="33" viewBox="0 0 30 33" fill="none" xmlns="http://www.w3.org/2000/svg">
<mask id="mask0_8_3565" style="mask-type:alpha" maskUnits="userSpaceOnUse" x="0" y="0" width="30" height="33">
<path d="M12.0589 0.946208C13.8053 -0.0620651 15.9569 -0.0620665 17.7033 0.946207L26.94 6.27901C28.6864 7.28728 29.7622 9.15065 29.7622 11.1672V21.8328C29.7622 23.8494 28.6864 25.7127 26.94 26.721L17.7033 32.0538C15.9569 33.0621 13.8053 33.0621 12.0589 32.0538L2.8222 26.721C1.07582 25.7127 0 23.8494 0 21.8328V11.1672C0 9.15065 1.07582 7.28729 2.8222 6.27901L12.0589 0.946208Z" fill="#C4C4C4"/>
</mask>
<g mask="url(#mask0_8_3565)">
<path d="M14.877 -0.96405L31.1888 8.45359L22.9339 12.8983L19.5242 11.0385L16.4244 11.3485L8.67499 8.55867L6.81512 11.0385L5.88519 12.2784L4.02533 11.0385L-1.43487 8.45359L14.877 -0.96405Z" fill="url(#paint0_linear_8_3565)"/>
<path d="M-0.128662 8.58696L6.19923 11.6555L9.91896 20.6449L9.91896 20.9549L11.1589 22.5048L16.7385 26.8444L14.8805 34.5835L-0.128663 25.918L-0.128662 8.58696Z" fill="url(#paint1_linear_8_3565)"/>
<path d="M19.8341 20.9544L23.8638 12.275L29.886 8.5888L29.886 25.9198L14.8769 34.5854L14.5645 26.8439L19.8341 20.9544Z" fill="url(#paint2_linear_8_3565)"/>
<path d="M14.8763 6.08276C12.3115 6.08276 9.9741 7.05624 8.21323 8.65384L9.6428 20.9616C10.0337 21.142 12.2759 21.8916 12.7065 21.8916H15.8062C16.3541 21.8916 20.1459 20.7238 20.1459 21.2716L19.8359 19.9696C19.8359 20.5175 19.3919 20.9616 18.844 20.9616H10.9086C10.3608 20.9616 9.91667 20.5175 9.91667 19.9696V15.1676C9.91667 14.737 9.82323 14.3116 9.6428 13.9206L8.21323 8.65384C6.61563 10.4146 4.95703 13.4372 4.95703 16.002C4.95703 21.4804 9.39799 25.9213 14.8763 25.9213C20.3546 25.9213 24.7956 21.4804 24.7956 16.002C24.7956 10.5237 20.3546 6.08276 14.8763 6.08276Z" fill="url(#paint3_linear_8_3565)"/>
<path d="M13.0393 10.2229C13.2583 10.1384 13.4926 10.1052 13.7246 10.1259C13.9565 10.1465 14.18 10.2205 14.3781 10.3422C14.5761 10.4639 14.7436 10.6301 14.8678 10.8282C14.9921 11.0263 15.0697 11.2512 15.095 11.4857C15.2751 13.1756 14.8956 14.8867 14.016 16.3503C13.1364 17.814 11.8066 18.9474 10.2352 19.5726L9.1231 16.6972C10.0618 16.3234 10.8568 15.6474 11.3846 14.7744C11.9124 13.9014 12.1433 12.8804 12.0415 11.8701C12.0044 11.5251 12.0821 11.1757 12.2624 10.8773C12.4427 10.5789 12.7152 10.3486 13.0367 10.2228L13.0393 10.2229Z" fill="#9C5AFF"/>
<path d="M13.0266 10.2276C12.6467 10.3789 12.3394 10.6761 12.1723 11.0538C12.0052 11.4315 11.9919 11.8587 12.1354 12.2416L15.3855 20.9085C15.5291 21.2913 15.8178 21.5984 16.1879 21.7621C16.5581 21.9259 16.9794 21.933 17.3594 21.7819C17.5475 21.707 17.7199 21.5956 17.8665 21.4538C18.0131 21.3121 18.1312 21.1429 18.214 20.9558C18.2967 20.7688 18.3426 20.5676 18.3488 20.3637C18.3551 20.1599 18.3217 19.9574 18.2505 19.7678L15.0005 11.101C14.9294 10.9113 14.822 10.7383 14.6844 10.5918C14.5467 10.4452 14.3815 10.328 14.1982 10.2469C14.0149 10.1658 13.817 10.1224 13.616 10.119C13.415 10.1157 13.2147 10.1526 13.0266 10.2276Z" fill="#9C5AFF"/>
<path d="M17.3449 21.7842C17.126 21.8687 16.8918 21.902 16.6598 21.8814C16.4279 21.8607 16.2045 21.7868 16.0064 21.6652C15.8084 21.5436 15.6409 21.3774 15.5167 21.1793C15.3925 20.9813 15.3148 20.7565 15.2895 20.522C15.1096 18.832 15.4891 17.121 16.3686 15.6573C17.2481 14.1936 18.5778 13.06 20.1491 12.4344L21.2612 15.3109C20.3225 15.6848 19.5275 16.3608 18.9997 17.2338C18.4719 18.1067 18.241 19.1278 18.3428 20.1381C18.3794 20.4832 18.3011 20.8325 18.1203 21.1307C17.9396 21.4289 17.6667 21.6588 17.3449 21.7842Z" fill="#9C5AFF"/>
</g>
<defs>
<linearGradient id="paint0_linear_8_3565" x1="14.5646" y1="0.49926" x2="14.282" y2="11.8216" gradientUnits="userSpaceOnUse">
<stop stop-color="#4E00D3"/>
<stop offset="1" stop-color="#7A36F0"/>
</linearGradient>
<linearGradient id="paint1_linear_8_3565" x1="14.8786" y1="23.4347" x2="5.90296" y2="12.673" gradientUnits="userSpaceOnUse">
<stop stop-color="#5508D8"/>
<stop offset="1" stop-color="#7935EF"/>
</linearGradient>
<linearGradient id="paint2_linear_8_3565" x1="14.8744" y1="24.6741" x2="23.4474" y2="13.215" gradientUnits="userSpaceOnUse">
<stop stop-color="#5205D6"/>
<stop offset="1" stop-color="#7A35F0"/>
</linearGradient>
<linearGradient id="paint3_linear_8_3565" x1="14.8763" y1="6.08276" x2="14.8763" y2="25.9213" gradientUnits="userSpaceOnUse">
<stop stop-color="#7935EF"/>
<stop offset="1" stop-color="#6117E0"/>
</linearGradient>
</defs>
</svg>
